<svg xmlns="http://www.w3.org/2000/svg" viewBox="0 0 227.04 39.6"><defs><style>.cls-1{fill:#313338;}</style></defs><title>BI_devth</title><g id="Layer_2" data-name="Layer 2"><g id="레이어_1" data-name="레이어 1"><path class="cls-1" d="M35.75,8.8a11,11,0,1,0,11,11A11,11,0,0,0,35.75,8.8Zm0,17.6a6.6,6.6,0,1,1,6.6-6.6A6.6,6.6,0,0,1,35.75,26.4Z"/><path class="cls-1" d="M60.5,8.8a11,11,0,1,0,11,11A11,11,0,0,0,60.5,8.8Zm0,17.6a6.6,6.6,0,1,1,6.6-6.6A6.6,6.6,0,0,1,60.5,26.4Z"/><path class="cls-1" d="M84.69,9.35a9.89,9.89,0,0,0-9.89,9.9v11h4.4v-11a5.49,5.49,0,0,1,5.49-5.5h2.2V9.35Z"/><path class="cls-1" d="M119.89,18.15a8.8,8.8,0,0,0-15.4-5.82,8.8,8.8,0,0,0-15.4,5.82h0v12.1h4.4V18.15a4.4,4.4,0,0,1,8.8,0v12.1h4.4V18.15h0a4.4,4.4,0,1,1,8.8,0h0v12.1h4.4V18.15Z"/><path class="cls-1" d="M143.54,0V12.54a11,11,0,1,0,2.75,7.26V0Zm-8.25,28.05a8.25,8.25,0,1,1,8.25-8.25A8.26,8.26,0,0,1,135.29,28.05Z"/><path class="cls-1" d="M171,18.49a12.74,12.74,0,0,0-.24-1.35,13.39,13.39,0,0,0-.43-1.31,11,11,0,0,0-21.16,5.27,10.77,10.77,0,0,0,.24,1.36,9.56,9.56,0,0,0,.43,1.31,11,11,0,0,0,21.14-2.64h-2.77a8.24,8.24,0,0,1-15.68,2l15.77-3.93Zm-19.13,1.94a8.24,8.24,0,0,1,15.77-3.93Z"/><path class="cls-1" d="M219.34,8.82a7.66,7.66,0,0,0-5,1.81V0h-2.75V30.25h2.75V16.52a5,5,0,1,1,9.9,0V30.25H227V16.52A7.7,7.7,0,0,0,219.34,8.82Z"/><polygon class="cls-1" points="208.89 9.35 203.67 9.35 203.67 3.28 200.92 3.28 200.92 9.35 195.69 9.35 195.69 12.1 200.92 12.1 200.92 30.25 203.67 30.25 203.67 12.1 208.89 12.1 208.89 9.35"/><polygon class="cls-1" points="192.7 9.35 189.69 9.35 181.95 26.74 174.2 9.35 171.19 9.35 180.5 30.25 183.4 30.25 192.7 9.35"/><path class="cls-1" d="M22,19.8h0a11,11,0,0,0-22-.55c0,.18,0,.36,0,.55s0,.37,0,.55A10.73,10.73,0,0,0,17.6,28V29.7A6.24,6.24,0,0,1,16,33.59c-2,2-5,2-7,1.31A7.45,7.45,0,0,1,5.36,32l-4.09,1.7a11,11,0,0,0,6.48,5.38A11.75,11.75,0,0,0,11,39.6a11.1,11.1,0,0,0,8.1-2.9,10.42,10.42,0,0,0,2.9-7h0ZM11,26.4a6.6,6.6,0,1,1,6.59-6.6A6.6,6.6,0,0,1,11,26.4Z"/></g></g></svg>